<svg id="レイヤー_1" data-name="レイヤー 1" xmlns="http://www.w3.org/2000/svg" xmlns:xlink="http://www.w3.org/1999/xlink" viewBox="0 0 152.32 36.21"><defs><style>.cls-1{fill:#595757;}.cls-2{fill:url(#名称未設定グラデーション);}.cls-3{fill:#fff;}.cls-4{fill:url(#名称未設定グラデーション_2);}</style><linearGradient id="名称未設定グラデーション" x1="151.46" y1="155.82" x2="183.53" y2="155.82" gradientTransform="matrix(1, 0, 0, -1, -83.4, 298.15)" gradientUnits="userSpaceOnUse"><stop offset="0" stop-color="#6dc6d1"/><stop offset="1" stop-color="#036eb8"/></linearGradient><linearGradient id="名称未設定グラデーション_2" x1="260.06" y1="313.99" x2="281.29" y2="313.99" gradientTransform="matrix(1, 0, 0, -1, -194.04, 449.3)" gradientUnits="userSpaceOnUse"><stop offset="0" stop-color="#b7daa2"/><stop offset="1" stop-color="#8fc31f"/></linearGradient></defs><title>メイリリィ新ロゴslice</title><path class="cls-1" d="M113.38,131.59a.29.29,0,0,1-.51-.13l-.06-.18a.4.4,0,0,1,.11-.49,10.56,10.56,0,0,0,2.89-4.35h-2.52a.33.33,0,0,1-.37-.36c0-.2.13-.3.37-.3H116c.09-.27.19-.59.29-1a.35.35,0,0,1,.42-.3l.37,0a.3.3,0,0,1,.29.42,8.16,8.16,0,0,1-.24.79h5.17a.33.33,0,0,1,.36.36c0,.2-.13.3-.36.3H117a11.7,11.7,0,0,1-.76,1.71h5.36a.33.33,0,0,1,.37.36v6.17c0,1.2-.16,1.34-1.46,1.34-.27,0-.73,0-1.34-.05a.35.35,0,0,1-.36-.38c0-.19.14-.29.39-.28a7.93,7.93,0,0,0,1.21.05.44.44,0,0,0,.41-.48v-1.36h-4.86v2.18a.33.33,0,0,1-.36.36h-.4a.33.33,0,0,1-.37-.36v-5.51A14.16,14.16,0,0,1,113.38,131.59Zm2.53-1.06h4.87v-1.74h-4.87Zm0,.59v1.8h4.87v-1.8Z" transform="translate(-66.02 -123.21)"/><path class="cls-1" d="M127.81,131.8a4.06,4.06,0,0,0-.77-2.43.46.46,0,0,1,0-.51,18.15,18.15,0,0,0,1.13-3.08h-1.51v10a.33.33,0,0,1-.36.36H126a.33.33,0,0,1-.36-.36V125.52a.33.33,0,0,1,.36-.36h2.81a.33.33,0,0,1,.36.36v.08a1.41,1.41,0,0,1-.06.44,20.65,20.65,0,0,1-1.21,3.07,4.66,4.66,0,0,1,1,2.88c0,1.1-.42,1.66-1.52,1.66a.34.34,0,0,1-.35-.34c0-.2.09-.32.35-.32h-.15C127.64,133,127.81,132.76,127.81,131.8Zm1.88-6.6h4.59a.33.33,0,0,1,.37.36v4.86a.33.33,0,0,1-.37.37H132.2a9.54,9.54,0,0,0,.73,2.06,10.35,10.35,0,0,0,1.25-1.47.3.3,0,0,1,.52,0l.09.1a.37.37,0,0,1,0,.51,14.18,14.18,0,0,1-1.45,1.61,6.81,6.81,0,0,0,1.6,1.71.33.33,0,0,1,.11.49l0,.08a.31.31,0,0,1-.49.14,8.13,8.13,0,0,1-3.37-5.22h-.75V135c.47-.1,1-.27,1.64-.46a.31.31,0,0,1,.44.27.34.34,0,0,1-.27.43,25.64,25.64,0,0,1-3.77.87.32.32,0,0,1-.41-.32c0-.21.07-.34.24-.35s.64-.11,1.05-.21v-9.62A.33.33,0,0,1,129.69,125.2Zm.72,2.4h3.13v-1.74h-3.13Zm0,.69v1.85h3.13v-1.85Z" transform="translate(-66.02 -123.21)"/><path class="cls-1" d="M137.48,128.34a24.52,24.52,0,0,0,4-3.4.53.53,0,0,1,.45-.2h.73a.54.54,0,0,1,.46.2,24.83,24.83,0,0,0,4,3.39.36.36,0,0,1,.15.49l-.06.12a.29.29,0,0,1-.49.14,22.57,22.57,0,0,1-4.38-3.72,23.18,23.18,0,0,1-4.38,3.72.3.3,0,0,1-.5-.14l-.05-.12A.35.35,0,0,1,137.48,128.34Zm7.92.5c0,.19-.13.29-.37.29h-5.51a.33.33,0,0,1-.36-.36c0-.19.13-.3.36-.3H145A.33.33,0,0,1,145.4,128.84ZM140.55,135c1.61-.14,3.14-.35,4.56-.59-.13-.3-.23-.55-.32-.73l-.33-.66a1.23,1.23,0,0,0-.1-.2c-.07-.13,0-.26.2-.38l.21-.11a.33.33,0,0,1,.5.14c.56,1.09,1.06,2.12,1.52,3.08a.33.33,0,0,1-.16.49l-.26.15a.32.32,0,0,1-.49-.18c-.16-.37-.3-.69-.44-1a62.35,62.35,0,0,1-7.16.84.35.35,0,0,1-.39-.36c0-.2.12-.33.36-.35l1.14-.06a33.81,33.81,0,0,0,1.29-3.56H138a.34.34,0,0,1-.37-.37c0-.21.14-.32.37-.32h8.55a.33.33,0,0,1,.37.36c0,.21-.13.33-.37.33h-4.76C141.46,132.66,141.05,133.79,140.55,135Z" transform="translate(-66.02 -123.21)"/><path class="cls-1" d="M151.41,124.81h.38a.33.33,0,0,1,.37.36v1.68h1.17a.33.33,0,0,1,.36.36v.16a1,1,0,0,1-.08.45,12.12,12.12,0,0,1-1.12,2.33c.64.7,1.17,1.34,1.62,1.88a.36.36,0,0,1,0,.51l-.14.16a.29.29,0,0,1-.51,0c-.43-.56-.87-1.09-1.34-1.6v4.8a.33.33,0,0,1-.36.36h-.3a.33.33,0,0,1-.36-.36v-4.22a10.09,10.09,0,0,1-1.24,1.05c-.22.17-.4.09-.48-.17l0-.1a.4.4,0,0,1,.16-.48,9,9,0,0,0,3.06-4.39H149.9a.36.36,0,1,1,0-.72h1.15v-1.68A.33.33,0,0,1,151.41,124.81Zm8,3.07a.32.32,0,0,1-.36.35h-1.69v6.84h1.87a.36.36,0,1,1,0,.72h-5.51a.36.36,0,1,1,0-.72h2.52v-6.84h-1.89a.33.33,0,0,1-.36-.37.32.32,0,0,1,.36-.34h1.89v-2.23a.33.33,0,0,1,.36-.36H157a.33.33,0,0,1,.37.36v2.23h1.69A.32.32,0,0,1,159.41,127.88Z" transform="translate(-66.02 -123.21)"/><path class="cls-1" d="M170,125.89a37.76,37.76,0,0,1-2.05,4.54,11.94,11.94,0,0,1,2,2.36.35.35,0,0,1-.07.51l-.41.37a.3.3,0,0,1-.52-.09,15.68,15.68,0,0,0-1.64-2.3,13.74,13.74,0,0,1-4.62,4.5c-.2.12-.37.08-.46-.09a.33.33,0,0,1,.13-.48,13.21,13.21,0,0,0,4.18-4.75,16.75,16.75,0,0,0-2.43-1.84c-.19-.13-.25-.29-.15-.46a.31.31,0,0,1,.45-.13,10.81,10.81,0,0,1,2.6,1.64,34.57,34.57,0,0,0,1.67-4.3.3.3,0,0,1,.46-.21l.61.26A.33.33,0,0,1,170,125.89Z" transform="translate(-66.02 -123.21)"/><path class="cls-1" d="M179.82,135.91h-.57c-.21,0-.33-.12-.29-.33v-6a18.37,18.37,0,0,1-4.08,2.52c-.21.09-.35,0-.43-.15v0a.3.3,0,0,1,.17-.43,19.13,19.13,0,0,0,6.92-6.12.28.28,0,0,1,.45-.06l.49.39c.17.14.16.32,0,.56a17.51,17.51,0,0,1-2.37,2.45v6.86C180.15,135.79,180,135.91,179.82,135.91Z" transform="translate(-66.02 -123.21)"/><path class="cls-1" d="M189.36,135.91a.3.3,0,0,1-.45-.25c0-.14.05-.24.24-.35,2.52-1.21,3.51-3.29,3.51-6.56V125.6a.33.33,0,0,1,.37-.36h.49a.33.33,0,0,1,.36.36v3.15C193.88,132.24,192.47,134.71,189.36,135.91Zm.2-10v5.2a.33.33,0,0,1-.37.36h-.41a.33.33,0,0,1-.37-.36V126a.34.34,0,0,1,.37-.37h.41A.33.33,0,0,1,189.56,126Z" transform="translate(-66.02 -123.21)"/><path class="cls-1" d="M201.58,135.91a.31.31,0,0,1-.46-.25c0-.14.06-.24.25-.35,2.52-1.21,3.51-3.29,3.51-6.56V125.6a.33.33,0,0,1,.37-.36h.49a.33.33,0,0,1,.36.36v3.15C206.1,132.24,204.69,134.71,201.58,135.91Zm.19-10v5.2a.33.33,0,0,1-.36.36H201a.33.33,0,0,1-.36-.36V126a.34.34,0,0,1,.36-.37h.42A.32.32,0,0,1,201.77,126Z" transform="translate(-66.02 -123.21)"/><path class="cls-1" d="M216,136h-.44c-.21,0-.32-.12-.29-.32v-4.7a9.88,9.88,0,0,1-3,1.77c-.2.08-.34,0-.41-.13s0-.28.19-.38a14.11,14.11,0,0,0,5.28-4.73.27.27,0,0,1,.45,0l.42.38c.15.14.13.35-.08.58a20,20,0,0,1-1.85,1.94v5.32C216.35,135.84,216.23,136,216,136Z" transform="translate(-66.02 -123.21)"/><path class="cls-1" d="M182.52,143.45H185v14.64h-2.46Z" transform="translate(-66.02 -123.21)"/><polygon class="cls-1" points="75.3 19.91 74.69 19.91 73.74 21.92 77.01 29.05 76.96 29.05 76.99 29.11 70.36 29.11 67.64 34.88 68.86 34.88 71.18 30 77.46 30 79.7 34.88 82.2 34.88 75.3 19.91"/><rect class="cls-1" x="102.47" y="20.24" width="2.46" height="14.65"/><rect class="cls-1" x="106.85" y="33.94" width="5.44" height="0.95"/><rect class="cls-1" x="129.18" y="33.94" width="5.45" height="0.95"/><rect class="cls-1" x="124.8" y="20.24" width="2.46" height="14.65"/><polygon class="cls-1" points="49.71 20.24 47.2 20.24 47.2 34.88 48.28 34.88 48.28 22.97 48.45 22.97 54.53 34.88 55.03 34.88 56.07 32.81 49.71 20.24"/><polygon class="cls-1" points="61.12 20.24 56.56 29.39 57.16 30.64 61.03 22.89 61.12 22.89 61.12 34.88 63.59 34.88 63.59 20.24 61.12 20.24"/><polygon class="cls-1" points="86.96 20.24 84.44 20.24 90.29 28.79 90.29 34.88 92.75 34.88 92.75 28.81 86.96 20.24"/><polygon class="cls-1" points="93.85 26.95 98.43 20.24 97.09 20.24 93.21 25.94 93.85 26.95"/><polygon class="cls-1" points="146.45 26.93 151.01 20.24 149.68 20.24 145.81 25.92 146.45 26.93"/><polygon class="cls-1" points="139.54 20.24 137.02 20.24 142.87 28.79 142.87 34.88 145.33 34.88 145.33 28.77 139.54 20.24"/><path class="cls-2" d="M72.26,142.19a46.4,46.4,0,0,0-4.2,17.22h32.07V125.24C87,125.24,77.61,130.94,72.26,142.19Z" transform="translate(-66.02 -123.21)"/><path class="cls-3" d="M75.17,147.43a1.67,1.67,0,1,1,1.67-1.67A1.66,1.66,0,0,1,75.17,147.43Z" transform="translate(-66.02 -123.21)"/><circle class="cls-3" cx="13.58" cy="16.32" r="2.22"/><path class="cls-3" d="M86.28,136.88A2.77,2.77,0,1,1,89,134.11,2.77,2.77,0,0,1,86.28,136.88Z" transform="translate(-66.02 -123.21)"/><circle class="cls-3" cx="29.37" cy="7.15" r="3.23"/><path class="cls-4" d="M87.25,123.21H66v24.22C68.58,138.7,74.33,127.68,87.25,123.21Z" transform="translate(-66.02 -123.21)"/></svg>